<?xml version="1.0" encoding="utf-8"?>
<!-- Generator: Adobe Illustrator 26.0.1, SVG Export Plug-In . SVG Version: 6.00 Build 0)  -->
<svg version="1.1" id="Layer_1" xmlns="http://www.w3.org/2000/svg" xmlns:xlink="http://www.w3.org/1999/xlink" x="0px" y="0px"
	 viewBox="0 0 24 24" style="enable-background:new 0 0 24 24;" xml:space="preserve">
<style type="text/css">
	.st0{fill:url(#SVGID_1_);}
	.st1{fill:#FFFFFF;}
</style>
<g>
	<linearGradient id="SVGID_1_" gradientUnits="userSpaceOnUse" x1="3.9793" y1="4.0793" x2="20.8085" y2="20.9085">
		<stop  offset="8.707216e-02" style="stop-color:#13E3EE"/>
		<stop  offset="0.8736" style="stop-color:#029CF5"/>
	</linearGradient>
	<circle class="st0" cx="12" cy="12.1" r="11.9"/>
</g>
<g>
	<path class="st1" d="M10.5,19c-0.3,0-0.6-0.1-0.8-0.3c-0.2-0.2-0.4-0.5-0.4-0.8c0-0.2,0.1-0.4,0.2-0.6l4.8-9H8.4
		C7.9,8.2,7.7,8,7.5,7.9C7.3,7.7,7.2,7.4,7.2,7.1c0-0.4,0.2-0.7,0.3-0.8C7.7,6.1,8,6,8.4,6h7.8c0.4,0,0.6,0.1,0.8,0.3l0,0
		c0.2,0.2,0.3,0.5,0.3,0.8c0,0.2-0.1,0.5-0.2,0.8l-5.5,10.5C11.3,18.8,10.9,19,10.5,19z"/>
</g>
</svg>
